# xmcd
#
# Track frame offsets:
#	150
#	16074
#	34079
#	49793
#	65033
#	80698
#	95807
#	117296
#	134875
#	151739
#	170518
#	183931
#	200443
#	212842
#
# Disc length: 3045 seconds
#
# Revision: 0
# Processed by: cddbd v1.5.2PL0 Copyright (c) Steve Scherf et al.
# Submitted via: EasyCDDAExtractor 5.0.5.1
#
DISCID=c70be30e
DTITLE=Various Artist -  HOTT COUNTRY # 133
DYEAR=1900
DGENRE=Country
TTITLE0=Big and Rich - Lost In The Moment
TTITLE1=Miranda Lambert - FAMOUS IN A SMALL TOWN
TTITLE2=Jimmy Rankin - Got To Leave Louisiana
TTITLE3=Guster - THIS WHEEL'S ON FIRE
TTITLE4=John Anderson - A Woman Knows
TTITLE5=Taylor Swift - TEARDROPS ON MY GUITAR
TTITLE6=Lee Ann Womack - THE WEIGHT
TTITLE7=Charlie Major - BETTER WORLD
TTITLE8=Luke Bryan - ALL MY FRIENDS SAY
TTITLE9=Anne Murray - NOW AND FOREVER
TTITLE10=Ricky Skaggs - I WOULDN'T CHANGE YOU IF I COULD
TTITLE11=Alabama - TAKE ME DOWN
TTITLE12=Aaron Tippin - THERE AIN'T NOTHIN' WRONG WITH THE RADIO
TTITLE13=Willie Nelson - MAMMAS DON'T LET YOUR BABIES GROW UP TO BE COWBOYS
EXTD=September 2006\n
EXTT0=
EXTT1=
EXTT2=
EXTT3=
EXTT4=
EXTT5=
EXTT6=
EXTT7=
EXTT8=
EXTT9=
EXTT10=
EXTT11=
EXTT12=
EXTT13=
PLAYORDER=
